<svg id="Capa_1" data-name="Capa 1" xmlns="http://www.w3.org/2000/svg" viewBox="0 0 86.75 91.08"><defs><style>.cls-1{fill:#5c5b5f;}.cls-2{fill:#e0e2e5;}.cls-3{fill:#868489;}.cls-4{fill:#cfaaaa;}.cls-5{fill:#fff;}.cls-6{fill:#adacb2;}.cls-7{fill:#1f140f;}.cls-8{fill:#727276;}.cls-9{fill:#99979c;}.cls-10{fill:#ebf4fa;}.cls-11{fill:#005473;}.cls-12{fill:#02809a;}.cls-13{fill:#003842;}.cls-14{fill:#006c8b;}.cls-15{fill:#008097;}</style></defs><path class="cls-1" d="M37.77,54.67s-1.23,15.88-4.11,17.8l2.88-1.92s-2.47,7-2.88,7.53,3.15-2.24,3.15-2.24-2.25,5.25-3.18,6.21,2.64-.55,2.64-.55-3.12,4.25-2.79,5.89a6.43,6.43,0,0,1-.91,3.7L36,88.49s-1.21,3.71.71,4.45,25.13,5.78,32.84-1.56c0,0-.15-2.59.67-2.07a22.44,22.44,0,0,1,1.93,1.48,9.16,9.16,0,0,1-1-4c.07-1.93-1.93-5.41-1.93-5.41L71,82.49s-3-5.37-2.67-6.65l2.08,2s-2.15-4.6-2.37-6.23l2.07,1.26S67.39,62.46,68,54.67" transform="translate(-7.25 -4.26)"/><path class="cls-2" d="M45.91,94.69s-.49-6.55.73-8.07.81-4.35.91-5.37,2.33-2.32,2.53-3.74,3.75-2.43,4.15-1.12,2.53,2.13,2.94,4,.1,3.62.91,4.8a7.87,7.87,0,0,1,1.22,4.42c.1,2,.37,5.41.37,5.41a54.3,54.3,0,0,1-13.76-.38" transform="translate(-7.25 -4.26)"/><path class="cls-3" d="M43.91,72.31s2.16,4,1.9,6.23c-.91,7.79,1.24.55,1.86.55,1.19,0,.19,6.54.19,7.22s1.82-2.72,1.82-2.72a31.65,31.65,0,0,0,.4,5.2c.44,1.08.41-4.25.92-4.52s1.77,2.81,2.28,3.62-.21-3.13.06-5.36c.13-1.09,1.17,2.49,1.47,3s.54-5.23.85-5.64.6,5.44.6,5.84.71-6.94,1-7.75,1,1.77,1,2.18.4-6.52,1-6.8-6.77-8.45-15.39-1.08" transform="translate(-7.25 -4.26)"/><path class="cls-2" d="M70.31,47.7,73,49.09c-.16-.61,1.14-2.4,5.29-2.79-5.78-1.43-.68-.8,1.34-2.07a21.46,21.46,0,0,1-4.3-.71c1.63-.8,5.21.07,6.5-2.22A6.28,6.28,0,0,1,77.75,41c6-4.13,8-8.27,11.9-14.44a60.52,60.52,0,0,0,4.08-8c-.89-.73-3.52,1.11-5,1.77-3.94,1.81-7.07,3.95-11.26,5.11a52.94,52.94,0,0,1-6.55.92,9.67,9.67,0,0,0-5.91,2.66s-4.7,2.37-2.28,3.48S68,32.93,69,37.62a34.6,34.6,0,0,1,.89,9.07c-.1.49.45,1,.45,1" transform="translate(-7.25 -4.26)"/><path class="cls-1" d="M70.31,47.7l2.74,1.35-.07.06a.78.78,0,0,1,0-.43,2,2,0,0,1,.19-.36,3.19,3.19,0,0,1,.57-.59,5.68,5.68,0,0,1,1.39-.81,11.22,11.22,0,0,1,3.12-.76v.26c-.58-.14-1.15-.28-1.72-.45a4.94,4.94,0,0,1-.86-.31.94.94,0,0,1-.12-.09.28.28,0,0,1-.06-.08.2.2,0,0,1,0-.17.31.31,0,0,1,.15-.14l.12,0a4.2,4.2,0,0,1,.45-.11c.59-.11,1.16-.19,1.73-.33a5.44,5.44,0,0,0,1.61-.59l.08.28a11.58,11.58,0,0,1-2.2-.24c-.72-.13-1.43-.3-2.13-.45l-.5-.11.46-.22a5.4,5.4,0,0,1,1.78-.4c.6-.07,1.19-.11,1.76-.19a6.09,6.09,0,0,0,1.66-.46,2.69,2.69,0,0,0,1.2-1.11l.25.28a3.29,3.29,0,0,1-1.09.24,7.79,7.79,0,0,1-1.08,0,7.63,7.63,0,0,1-1.07-.13,3.53,3.53,0,0,1-.54-.13,2.14,2.14,0,0,1-.54-.25L77.37,41l.26-.18A27.26,27.26,0,0,0,83.06,36a47.76,47.76,0,0,0,4.19-6c.64-1,1.28-2.09,1.93-3.13S90.45,24.78,91,23.7s1.11-2.18,1.63-3.29c.26-.55.52-1.11.76-1.66l0-.1a.3.3,0,0,1,0-.09v0c-.06,0,.15.36.09.23h0l0,0-.06,0a1,1,0,0,0-.35-.05,3.26,3.26,0,0,0-.82.2,12.66,12.66,0,0,0-1.63.77c-.53.29-1.06.59-1.63.87-1.12.51-2.2,1.06-3.3,1.63A48.57,48.57,0,0,1,79,25.26c-.59.2-1.17.38-1.78.54s-1.22.25-1.83.34c-1.23.17-2.46.25-3.67.39a15.09,15.09,0,0,0-3.54.76,7.33,7.33,0,0,0-3,1.9l0,0h0a14.78,14.78,0,0,0-1.28.75,7,7,0,0,0-1.15.92,1.91,1.91,0,0,0-.4.57.55.55,0,0,0,0,.57,1.28,1.28,0,0,0,.54.38,5.2,5.2,0,0,0,.69.27,23.08,23.08,0,0,1,2.89.93,4.16,4.16,0,0,1,1.24.93,4.83,4.83,0,0,1,.82,1.3A8.32,8.32,0,0,1,69,37.31c.06.24.11.49.15.74l.15.75c.17,1,.32,2,.42,3s.18,2,.2,3c0,.51,0,1,0,1.52,0,.25-.11.5,0,.74a1.76,1.76,0,0,0,.41.63m0,0a1.71,1.71,0,0,1-.42-.62.71.71,0,0,1,0-.38,2.34,2.34,0,0,0,0-.38c0-.5,0-1,0-1.51,0-1-.13-2-.25-3s-.28-2-.47-3c0-.25-.1-.5-.16-.74s-.1-.49-.16-.74a8.6,8.6,0,0,0-.49-1.4,4.57,4.57,0,0,0-.8-1.23,3.86,3.86,0,0,0-1.18-.86A21.62,21.62,0,0,0,63.48,33a6.46,6.46,0,0,1-.73-.28,1.61,1.61,0,0,1-.67-.48.78.78,0,0,1-.15-.44,1,1,0,0,1,.08-.43,2.16,2.16,0,0,1,.46-.67,7,7,0,0,1,1.2-1A12.3,12.3,0,0,1,65,28.91l0,0a7.88,7.88,0,0,1,3.13-2,16.18,16.18,0,0,1,3.63-.82c1.23-.15,2.45-.23,3.66-.4a15.11,15.11,0,0,0,1.78-.34c.58-.15,1.17-.33,1.74-.53a48.66,48.66,0,0,0,6.64-3.09c1.08-.57,2.19-1.13,3.3-1.64s2.12-1.22,3.31-1.68a3.63,3.63,0,0,1,1-.22,1.41,1.41,0,0,1,.56.07l.14.07.07.05,0,0c0-.13.16.28.1.26v0a.89.89,0,0,1,0,.13l0,.12c-.25.57-.5,1.13-.76,1.69-.53,1.11-1.08,2.21-1.66,3.3s-1.19,2.17-1.86,3.2l-1.94,3.12a47.78,47.78,0,0,1-4.26,6.05,27.28,27.28,0,0,1-5.54,4.91v-.35a1.74,1.74,0,0,0,.41.19,3.89,3.89,0,0,0,.49.12,6.77,6.77,0,0,0,1,.13,7,7,0,0,0,1,0,3,3,0,0,0,1-.19l.53-.22-.28.5a3,3,0,0,1-1.38,1.25,5.84,5.84,0,0,1-1.76.48c-.6.09-1.19.12-1.78.18a5.35,5.35,0,0,0-1.67.36l0-.32c.71.16,1.42.34,2.13.47a11,11,0,0,0,2.13.25h.54l-.46.28A5.9,5.9,0,0,1,78,45c-.58.13-1.17.22-1.75.32l-.41.1-.08,0s0,0,0,0a.11.11,0,0,0,0-.06s0,0,0,0l.07,0a4.43,4.43,0,0,0,.8.3c.56.17,1.13.31,1.7.46l.76.19-.78.07a10.8,10.8,0,0,0-3.08.66,5.6,5.6,0,0,0-1.38.75,3.18,3.18,0,0,0-.55.55,2.79,2.79,0,0,0-.19.33.66.66,0,0,0,0,.36l0,.11-.09,0Z" transform="translate(-7.25 -4.26)"/><path class="cls-4" d="M71.27,39.38a11.72,11.72,0,0,0,4.5-2.65l-2.39-.22a9.93,9.93,0,0,0,4.55-2.26,3.61,3.61,0,0,0-2.07-.37,37.22,37.22,0,0,0,8-7.72A13.16,13.16,0,0,1,86.79,23a9.93,9.93,0,0,1,2-1c.62-.18,1.76-.37,1.76-.37S88,30,77.38,38.91s-8.75,2.88-8.75,2.88-.71-1.26,2.64-2.41" transform="translate(-7.25 -4.26)"/><path class="cls-1" d="M71.27,39.38a11.39,11.39,0,0,0,2.37-1.11,11.13,11.13,0,0,0,2-1.64l.09.25-2.4-.18-1.28-.09,1.26-.28a9.94,9.94,0,0,0,2.36-.85,10.09,10.09,0,0,0,2.07-1.41l0,.4a3.34,3.34,0,0,0-1.92-.34l-1,.12.83-.58q1-.7,1.92-1.47c.62-.5,1.24-1,1.83-1.57a40.75,40.75,0,0,0,3.35-3.48c.52-.62,1-1.25,1.52-1.89A12.41,12.41,0,0,1,86,23.45a5.92,5.92,0,0,1,1-.71,9.4,9.4,0,0,1,1.11-.53,7.48,7.48,0,0,1,2.38-.53,8,8,0,0,0-2.32.67,7.68,7.68,0,0,0-2,1.31,13,13,0,0,0-1.55,1.83c-.48.65-1,1.31-1.48,1.94A36.47,36.47,0,0,1,79.81,31c-.59.56-1.21,1.09-1.84,1.61s-1.29,1-2,1.48l-.18-.47A3.84,3.84,0,0,1,78,34l.32.17-.27.23a10.63,10.63,0,0,1-2.19,1.44,10.32,10.32,0,0,1-2.48.82l0-.38,2.39.27.32,0-.23.22a10.58,10.58,0,0,1-2.15,1.57,10.16,10.16,0,0,1-2.46,1" transform="translate(-7.25 -4.26)"/><path class="cls-2" d="M20,46.4,17,46a14.79,14.79,0,0,1-5.18-1.38,13.35,13.35,0,0,1-3.28-2.86,3.3,3.3,0,0,1-1.17-2.52,2.35,2.35,0,0,1,1.87-1.71,9.94,9.94,0,0,1,2.67-.05,20.86,20.86,0,0,0,9.36-2.07,95.75,95.75,0,0,0,8.49-4.65,11.67,11.67,0,0,1,2-.94,11.26,11.26,0,0,1,2.78-.42,17,17,0,0,1,5.1,1.3s-.19-.4-2.19,1.15-4.82,5.32-4,12.54S22.31,46.73,20,46.4" transform="translate(-7.25 -4.26)"/><path class="cls-1" d="M20,46.4,16.82,46a21.84,21.84,0,0,1-3.11-.58,8.22,8.22,0,0,1-2.85-1.35,17.56,17.56,0,0,1-2.31-2.17,7.09,7.09,0,0,1-1-1.26,2.89,2.89,0,0,1-.28-.76,1.89,1.89,0,0,1,0-.82,2.06,2.06,0,0,1,.39-.73,2.43,2.43,0,0,1,.63-.52,3.26,3.26,0,0,1,1.54-.47,12.19,12.19,0,0,1,1.6,0c.52,0,1,0,1.57,0a18.05,18.05,0,0,0,3.1-.42A26.29,26.29,0,0,0,22,34.79c1.89-.91,3.7-2,5.53-3.05.91-.53,1.81-1.07,2.74-1.59a8,8,0,0,1,1.51-.63,8.16,8.16,0,0,1,1.6-.29l.8-.07.41,0c.14,0,.28,0,.42,0a11.76,11.76,0,0,1,1.59.31q.76.19,1.53.45a15.88,15.88,0,0,1,1.5.56l-.3.31,0,.06h0l0,0h-.06l-.2.07a3.42,3.42,0,0,0-.43.21c-.28.17-.56.35-.83.55l-.4.3-.38.31-.37.34-.35.35a11.07,11.07,0,0,0-1.19,1.6,10.62,10.62,0,0,0-.88,1.79,13.83,13.83,0,0,0-.91,3.91,21,21,0,0,0,0,4,4.58,4.58,0,0,1-.19,2,2.75,2.75,0,0,1-.54.88,2.93,2.93,0,0,1-.84.6,5.07,5.07,0,0,1-2,.45,11.46,11.46,0,0,1-2-.08,30.33,30.33,0,0,1-4-.81l-2-.54-1-.27a8.52,8.52,0,0,0-1-.23m0,0c.34.05.67.14,1,.22l1,.27c.65.19,1.3.37,2,.54a27.15,27.15,0,0,0,4,.77,11.51,11.51,0,0,0,2,.06,4.94,4.94,0,0,0,1.94-.47,2.47,2.47,0,0,0,1.3-1.44,4.37,4.37,0,0,0,.14-2,22.26,22.26,0,0,1-.1-4.08,14.88,14.88,0,0,1,.86-4,11.66,11.66,0,0,1,.87-1.86,11.2,11.2,0,0,1,1.21-1.68l.36-.38.37-.36.4-.34.41-.31c.28-.2.56-.4.86-.58a3.62,3.62,0,0,1,.48-.25,2,2,0,0,1,.29-.09l.18,0,.13,0,.08,0,0,0a.19.19,0,0,1,.06.08l.31.57-.61-.25c-.47-.2-1-.37-1.47-.53s-1-.3-1.51-.43A13.39,13.39,0,0,0,35,29.67l-.37,0-.38,0-.78.07A8.53,8.53,0,0,0,32,30a8.55,8.55,0,0,0-1.4.6c-.91.5-1.83,1-2.74,1.57-1.82,1.06-3.66,2.12-5.58,3a28.91,28.91,0,0,1-2.94,1.22,23.4,23.4,0,0,1-3.08.85,17.68,17.68,0,0,1-3.16.36c-.53,0-1.07,0-1.6,0a11.67,11.67,0,0,0-1.56-.05A3.21,3.21,0,0,0,8.43,38a2,2,0,0,0-.95,1.13,1.89,1.89,0,0,0,.22,1.46,6.61,6.61,0,0,0,.93,1.26A16.79,16.79,0,0,0,10.9,44a8.38,8.38,0,0,0,2.81,1.38,23.67,23.67,0,0,0,3.11.59Z" transform="translate(-7.25 -4.26)"/><path class="cls-5" d="M7.53,39.3a2.28,2.28,0,0,1,2.1-1.62,14.56,14.56,0,0,1,2.64,0,20.59,20.59,0,0,0,9.23-2.05A93,93,0,0,0,29.87,31a10.67,10.67,0,0,1,1.93-.92,11,11,0,0,1,2.74-.42,16.86,16.86,0,0,1,5,1.28s-5.93-2.09-8.91.44a29.59,29.59,0,0,1-12.57,6.39c-2.6.61-6.15-.06-8,.22A4,4,0,0,0,7.53,39.3" transform="translate(-7.25 -4.26)"/><path class="cls-4" d="M32.8,46.39a1.35,1.35,0,0,1-.41-.92c-.24.28-.48.55-.71.83L31,45.11l-2.62.72A8.92,8.92,0,0,0,29.62,44a10.4,10.4,0,0,1-4.08.42,2.71,2.71,0,0,0,.65-1.87A8.71,8.71,0,0,1,22.3,44c.39-1.24-.41-1.33-.75-2-1.49.8-2.39.64-3.9-.12S16,40.2,14.5,39.47a6,6,0,0,0-5.25.35s-1,.57,1.81,2.34,2.4,2,8.55,2.9,5.33,1.8,8.79,1.75a16,16,0,0,0,4.4-.42" transform="translate(-7.25 -4.26)"/><path class="cls-1" d="M9.25,39.82a5.88,5.88,0,0,1,3.26-.88,5.21,5.21,0,0,1,1.7.27,4.63,4.63,0,0,1,1.5.88c.45.38.81.81,1.24,1.14a4.43,4.43,0,0,0,.69.43c.24.12.5.24.75.34a3.42,3.42,0,0,0,1.55.31,3,3,0,0,0,.76-.17,5.35,5.35,0,0,0,.73-.34l.23-.11.11.22a1.73,1.73,0,0,0,.31.38,2.25,2.25,0,0,1,.42.48,1.26,1.26,0,0,1,.16.68,2.13,2.13,0,0,1-.11.63l-.29-.34a12.81,12.81,0,0,0,2-.46,10.23,10.23,0,0,0,1.81-.91l.37-.22v.42a3,3,0,0,1-.72,2l-.15-.39a10.18,10.18,0,0,0,4-.36l.44-.13-.22.4a8.36,8.36,0,0,1-1.31,1.81l-.15-.25c.88-.23,1.75-.45,2.63-.66L31,45l0,.06.66,1.2h-.1l.73-.8.06-.07v.09a1.32,1.32,0,0,0,.38.92,1.38,1.38,0,0,1-.45-.92l.06,0-.68.85-.06.06-.05-.07-.72-1.17.11.05-2.6.77-.5.14.34-.4a8.6,8.6,0,0,0,1.21-1.78l.22.28a11.18,11.18,0,0,1-2.05.44,10.63,10.63,0,0,1-2.11,0l-.44,0,.28-.35a2.42,2.42,0,0,0,.58-1.7l.38.21a10.25,10.25,0,0,1-1.9,1,11.77,11.77,0,0,1-2.07.5l-.42.07.13-.41a1.69,1.69,0,0,0,.09-.48.63.63,0,0,0-.1-.41,1.8,1.8,0,0,0-.32-.38,2.1,2.1,0,0,1-.4-.51l.34.11a7.32,7.32,0,0,1-.81.35,3.43,3.43,0,0,1-.89.18,3.82,3.82,0,0,1-1.75-.37,8.1,8.1,0,0,1-.78-.39,3.88,3.88,0,0,1-.73-.49c-.46-.37-.82-.83-1.21-1.2a4.27,4.27,0,0,0-1.38-.88,4.93,4.93,0,0,0-1.62-.34,6.69,6.69,0,0,0-1.67.13,5.56,5.56,0,0,0-1.58.58" transform="translate(-7.25 -4.26)"/><path class="cls-2" d="M71.37,34.93c-.49-.86-1.42-4.34-8.4-6.77-1.49-4.2-5.33-8.25-5.33-8.25-.3.42-2,5.2-2.23,5.67-.76-3.85-4.49-12.42-4.49-12.42-.81,5.39-1.38,5-3.71,8.51a7,7,0,0,0-1.43,4.67c-1.86-1-1.28-4.9-1.28-4.9S39.18,24.92,38,29.79c-3.25,1.88-6.06,4.74-6.58,9.05-.47,3.88,1.72,14.53,2,15.86,1.19,5.3,4.28,10,7.31,14.46,0,0,3.85,4.9,9.2,5.74,4.4.7,10.23-2.31,12.24-4.66a40.48,40.48,0,0,0,6.85-10.73,72.89,72.89,0,0,0,3.42-11.72,29.57,29.57,0,0,0,.79-4.38,14.86,14.86,0,0,0-1.91-8.48" transform="translate(-7.25 -4.26)"/><path class="cls-1" d="M51.34,75.27a8.18,8.18,0,0,1-1.4-.11c-5.39-.85-9.2-5.64-9.36-5.84h0c-2.88-4.28-6.14-9.13-7.36-14.56,0-.11-2.53-11.77-2-15.94.46-3.8,2.68-6.89,6.61-9.19,1.21-4.86,6.34-8.25,6.56-8.4l.48-.31-.08.57s-.45,3.13.75,4.33A7.23,7.23,0,0,1,47,21.52c.5-.75.91-1.31,1.28-1.81C49.55,18,50,17.3,50.66,13.12l.13-.9.37.84A102.71,102.71,0,0,1,55.48,24.7c.13-.36.3-.8.47-1.26a36.77,36.77,0,0,1,1.48-3.68l.18-.26.22.23A27.83,27.83,0,0,1,63.17,28c6.23,2.2,7.65,5.21,8.26,6.5.06.14.12.26.17.35a15.22,15.22,0,0,1,1.94,8.63,29.19,29.19,0,0,1-.8,4.42,74,74,0,0,1-3.43,11.76,40.43,40.43,0,0,1-6.89,10.8,17,17,0,0,1-11.08,4.86M41,69c.16.2,3.93,4.83,9,5.64,4.28.67,10-2.31,12-4.58a40,40,0,0,0,6.81-10.66,73.44,73.44,0,0,0,3.4-11.68A29.88,29.88,0,0,0,73,43.39a14.69,14.69,0,0,0-1.88-8.33c0-.11-.11-.24-.19-.39-.58-1.24-2-4.13-8.06-6.26l-.12,0-.05-.12a26.89,26.89,0,0,0-5-7.88c-.29.66-.85,2.18-1.26,3.25s-.7,1.89-.8,2.07l-.34.69-.15-.75C54.55,22.55,52,16.34,51,14.1c-.59,3.51-1.11,4.23-2.35,5.92-.36.49-.77,1.05-1.26,1.79A6.77,6.77,0,0,0,46,26.32l0,.46-.4-.21c-1.57-.81-1.57-3.4-1.48-4.58-1.3,1-5,4-5.9,7.86l0,.11-.09.06c-3.84,2.22-6,5.2-6.45,8.85s1.51,13.52,2,15.77C34.92,60,38.14,64.77,41,69" transform="translate(-7.25 -4.26)"/><path class="cls-6" d="M62.11,70.24a40.47,40.47,0,0,0,6.72-10.61A73.58,73.58,0,0,0,72.19,48,29.23,29.23,0,0,0,73,43.7a15.45,15.45,0,0,0-1.8-8.6c-.62-1.09-3-8.58-21.53-8.58,0,0-15.56.84-17.92,12-.26,1.22,2.27-4.78,7-7.44,2.77-1.54,8.06-1,12-.89,20.84.38,19.12,14.46,16,26-.54,2-6.1,2.14-4.86,7.27s0,7,.22,6.75" transform="translate(-7.25 -4.26)"/><polygon class="cls-7" points="37.65 68.65 40.72 67.14 43.18 64.71 46.55 64.71 49.21 67.18 51.33 67.45 48.89 71.5 41.08 72.18 38.79 70.99 37.65 68.65"/><path class="cls-2" d="M56.37,77c-2.79,1.38-7.19,1-9.31,0s-2.63-2.75-3.38-4.71L43,70.88c.75,1,2.17-.28,3.52-.33,1.17,0,3.59,1.54,4.77,1.55,1.73,0,2.93-.88,4.15-1.17s1.56,1.94,3.41,1.46c0,0,2.68-2.53,2.77-2.65S59.22,75.6,56.37,77" transform="translate(-7.25 -4.26)"/><path class="cls-8" d="M51.86,78.21a13,13,0,0,1-4.92-.87c-2.06-.92-2.69-2.61-3.36-4.39-.06-.16-.12-.32-.19-.49l-1.57-3.61,1.46,1.84c.32.41.85.25,1.68,0a5.16,5.16,0,0,1,1.59-.4,7.31,7.31,0,0,1,2.59.81,7.24,7.24,0,0,0,2.2.74,6.7,6.7,0,0,0,2.73-.68,9.74,9.74,0,0,1,1.33-.48c.75-.18,1.23.31,1.65.74s.89.92,1.69.74c1-1,2.57-2.44,2.68-2.57l1.41-1.81-.89,2.13c-.1.24-2.52,6-5.44,7.43a10.75,10.75,0,0,1-4.64.92m-8.2-6.67.3.69.19.51c.65,1.73,1.21,3.22,3,4s6.25,1.35,9,0l.14.27-.14-.27c1.83-.91,3.53-3.81,4.44-5.62L59.1,72.61l-.05,0-.08,0a2.25,2.25,0,0,1-2.36-.88c-.42-.43-.68-.67-1.06-.58a8.93,8.93,0,0,0-1.24.45,7.14,7.14,0,0,1-3,.74,7.54,7.54,0,0,1-2.44-.8,7.23,7.23,0,0,0-2.32-.76,5.35,5.35,0,0,0-1.4.36,3.82,3.82,0,0,1-1.51.33" transform="translate(-7.25 -4.26)"/><path class="cls-2" d="M51.55,68.47S50.9,72.8,55,73.53s9.16-1.24,7-10.11" transform="translate(-7.25 -4.26)"/><path class="cls-8" d="M51.55,68.47a6,6,0,0,0,.51,2.66,4.13,4.13,0,0,0,.76,1.08,3.78,3.78,0,0,0,1.08.72,5.44,5.44,0,0,0,1.27.36,8.75,8.75,0,0,0,1.34.11,6.83,6.83,0,0,0,2.62-.46,4.92,4.92,0,0,0,2.07-1.59,6.1,6.1,0,0,0,1-2.46,11.24,11.24,0,0,0,.14-2.72A21.34,21.34,0,0,0,62,63.42a15.9,15.9,0,0,1,.59,2.72,10.24,10.24,0,0,1,0,2.82,6.27,6.27,0,0,1-1,2.67,5.29,5.29,0,0,1-1,1.06,5.45,5.45,0,0,1-1.26.73,6.88,6.88,0,0,1-2.82.51,8.43,8.43,0,0,1-1.42-.13,4.9,4.9,0,0,1-1.39-.44,3.77,3.77,0,0,1-1.93-2.11,5.08,5.08,0,0,1-.3-1.39,5.36,5.36,0,0,1,.08-1.39" transform="translate(-7.25 -4.26)"/><path class="cls-5" d="M33.85,55s.56,4.61,6.37,12.69v-2S38.5,61.47,36.5,55Z" transform="translate(-7.25 -4.26)"/><path class="cls-2" d="M51.48,68.65S52.12,73,48,73.72s-8.76.33-7.63-10" transform="translate(-7.25 -4.26)"/><path class="cls-8" d="M51.48,68.65a5.62,5.62,0,0,1,.08,1.42,4.88,4.88,0,0,1-.31,1.41,3.78,3.78,0,0,1-2,2.11,5.37,5.37,0,0,1-1.4.42c-.47.08-1,.14-1.43.18a7.31,7.31,0,0,1-2.89-.3,4.36,4.36,0,0,1-1.31-.7,4.71,4.71,0,0,1-1-1.1,7,7,0,0,1-1-2.72,15.08,15.08,0,0,1-.15-2.84,24.05,24.05,0,0,1,.29-2.82c0,.94-.08,1.88-.06,2.82a16.08,16.08,0,0,0,.3,2.77,7.12,7.12,0,0,0,1,2.52,4.06,4.06,0,0,0,2.08,1.57,6.89,6.89,0,0,0,2.68.27c.46,0,.92-.09,1.38-.16a5.67,5.67,0,0,0,1.3-.35,3.77,3.77,0,0,0,1.1-.71A3.68,3.68,0,0,0,51,71.35a5.88,5.88,0,0,0,.53-2.7" transform="translate(-7.25 -4.26)"/><path class="cls-5" d="M40.38,63.77C39.55,74,44.07,74.3,48.18,73.6A3.56,3.56,0,0,0,51.1,71a3.19,3.19,0,0,1-3,1.91c-2.84-.06-3.86.24-5.51-3.28a38.92,38.92,0,0,1-2.24-5.85" transform="translate(-7.25 -4.26)"/><path class="cls-7" d="M72,41.9H54.42a1,1,0,0,0-1.07,1v1.28a4.46,4.46,0,0,0-3.7-.07V42.88a1,1,0,0,0-1.06-1H31a1,1,0,0,0-1.06,1v8.51a4,4,0,0,0,4.16,3.85H46a3.57,3.57,0,0,0,3.69-3.42V46.39a3.51,3.51,0,0,1,3.7,0v5.16a3.86,3.86,0,0,0,4,3.69h10.8A4.73,4.73,0,0,0,73,50.72V42.88a1,1,0,0,0-1.07-1" transform="translate(-7.25 -4.26)"/><path class="cls-8" d="M68.14,55.5H57.34a4.11,4.11,0,0,1-4.25-4v-5a3.28,3.28,0,0,0-3.18,0v5.27A3.82,3.82,0,0,1,46,55.5H34.14a4.28,4.28,0,0,1-4.42-4.11V42.88A1.28,1.28,0,0,1,31,41.64H48.59a1.28,1.28,0,0,1,1.32,1.24v.83a4.69,4.69,0,0,1,3.18,0v-.88a1.29,1.29,0,0,1,1.32-1.24H72a1.28,1.28,0,0,1,1.32,1.24v7.84a5,5,0,0,1-5.14,4.78M51.58,45.62a3.36,3.36,0,0,1,1.93.57l.1.07v5.29A3.59,3.59,0,0,0,57.34,55h10.8a4.46,4.46,0,0,0,4.63-4.26V42.88a.77.77,0,0,0-.81-.72H54.41a.76.76,0,0,0-.8.72v1.7l-.37-.18a4.19,4.19,0,0,0-3.47-.08l-.38.19V42.88a.76.76,0,0,0-.8-.72H31a.76.76,0,0,0-.8.72v8.51A3.76,3.76,0,0,0,34.14,55H46a3.31,3.31,0,0,0,3.43-3.16V46.24l.14-.07a4.32,4.32,0,0,1,2-.55" transform="translate(-7.25 -4.26)"/><path class="cls-5" d="M55.5,53.2s-1-1.33-1-5.39c0-3.23.16-4.41,2.83-4.24s5.75-.17,2.16,1.62-3.39,1.36-3.67,5.12c-.21,2.88.6,3.92-.33,2.89" transform="translate(-7.25 -4.26)"/><path class="cls-5" d="M32.09,53.2a16.28,16.28,0,0,1-.83-5.87c0-3.23,0-3.93,2.67-3.76s6.55-.23,3,1.56-4.18,1.43-4.46,5.18c-.22,2.88.59,3.93-.34,2.89" transform="translate(-7.25 -4.26)"/><path class="cls-6" d="M60.52,62s.92,3.71-.93,5-3.22.26-5.75,1.61-1.55.27-.82-.84,1.91-.34,3-1.74,4.68,1.18,4.45-4" transform="translate(-7.25 -4.26)"/><path class="cls-2" d="M57.68,60c1.1.12,3.69.82,2.71,4C60,65.32,58,65.85,57.54,65.78c0,0-4.59,1-4.95,2.6-.26,1.12-2.25,1.11-2.44.05-.09-.53-.86-.75-1.39-1.09a8,8,0,0,0-4-1.56c-.42,0-2.44-.46-2.86-1.82-1-3.17,1.62-3.87,2.72-4" transform="translate(-7.25 -4.26)"/><path class="cls-9" d="M57.68,60a3.87,3.87,0,0,1,2.18.79,2.33,2.33,0,0,1,.7,1,2.85,2.85,0,0,1,.18,1.19,4.89,4.89,0,0,1-.22,1.19,2.37,2.37,0,0,1-.73,1,4.46,4.46,0,0,1-1,.62,5.62,5.62,0,0,1-.58.19l-.3.06a1.34,1.34,0,0,1-.36,0h.09a17.61,17.61,0,0,0-2.85.94,6.62,6.62,0,0,0-1.28.72,2.15,2.15,0,0,0-.48.47.84.84,0,0,0-.13.27l0,.09,0,.11a1.51,1.51,0,0,1-.11.22,1.38,1.38,0,0,1-.73.56,1.84,1.84,0,0,1-.87.09,1.58,1.58,0,0,1-.83-.36,1.12,1.12,0,0,1-.28-.4.8.8,0,0,1-.07-.24.42.42,0,0,0,0-.1,1.11,1.11,0,0,0-.47-.39l-.68-.37c-.44-.28-.85-.54-1.29-.78a7.28,7.28,0,0,0-1.35-.59,4.62,4.62,0,0,0-.71-.18L45,66h-.29l-.1,0a4.65,4.65,0,0,1-1.51-.51,2.85,2.85,0,0,1-1.18-1.08,1.68,1.68,0,0,1-.16-.39c0-.12-.07-.25-.1-.38a5,5,0,0,1-.09-.78A2.56,2.56,0,0,1,42,61.32a2.67,2.67,0,0,1,1.19-1A4.52,4.52,0,0,1,44.63,60a4.67,4.67,0,0,0-1.44.46,2.5,2.5,0,0,0-1.07,1,2.46,2.46,0,0,0-.28,1.41,4.51,4.51,0,0,0,.12.72c0,.12.07.24.11.36a1.23,1.23,0,0,0,.14.31,2.51,2.51,0,0,0,1.07.91,4.81,4.81,0,0,0,1.38.43H45c.13,0,.27,0,.4.05a5,5,0,0,1,.77.17,8.87,8.87,0,0,1,1.45.61,13.1,13.1,0,0,1,1.32.78c.21.12.44.22.67.35a2.64,2.64,0,0,1,.35.23,1.12,1.12,0,0,1,.32.36.84.84,0,0,1,.09.25,1,1,0,0,1,0,.14.65.65,0,0,0,.16.21,1,1,0,0,0,.55.23,1.11,1.11,0,0,0,1.09-.4.54.54,0,0,0,.07-.13.64.64,0,0,0,0-.07l0-.09a1.5,1.5,0,0,1,.21-.42,2.79,2.79,0,0,1,.6-.59,6.89,6.89,0,0,1,1.38-.76,18,18,0,0,1,3-.92h.08a1,1,0,0,0,.23,0l.26,0a3.24,3.24,0,0,0,.53-.16,3.52,3.52,0,0,0,1-.53,2,2,0,0,0,.65-.83,4.43,4.43,0,0,0,.25-1.09,2.51,2.51,0,0,0-.1-1.09,2.2,2.2,0,0,0-.6-.93,3.3,3.3,0,0,0-1-.6A4.91,4.91,0,0,0,57.68,60" transform="translate(-7.25 -4.26)"/><path class="cls-7" d="M49,67.48a6.27,6.27,0,0,1-1.8-2,1.63,1.63,0,0,0-2.88-.28c-.36.71.25.86,1.57,1.25.83.24,1.71,1.16,3.11,1" transform="translate(-7.25 -4.26)"/><path class="cls-9" d="M48.76,67.57a4.22,4.22,0,0,1-2.06-.66,4.16,4.16,0,0,0-.83-.4l-.1,0c-.91-.27-1.45-.43-1.6-.77a.66.66,0,0,1,.07-.58,1.44,1.44,0,0,1,1.33-.8h0a2,2,0,0,1,1.71,1.08,6,6,0,0,0,1.77,2l.21.14-.25,0h-.25m-3.19-3.06a1.27,1.27,0,0,0-1.17.71.48.48,0,0,0-.07.43c.11.27.66.43,1.49.67l.09,0a4.83,4.83,0,0,1,.88.4,4,4,0,0,0,2,.65,6.15,6.15,0,0,1-1.63-1.9,1.77,1.77,0,0,0-1.55-1Z" transform="translate(-7.25 -4.26)"/><path class="cls-7" d="M53.46,67.41a5.57,5.57,0,0,0,1.65-1.9A1.63,1.63,0,0,1,58,65.23c.36.7-.25.86-1.57,1.25-.83.24-1.56,1-3,.93" transform="translate(-7.25 -4.26)"/><path class="cls-9" d="M53.72,67.5h-.27l-.25,0,.21-.14A5.42,5.42,0,0,0,55,65.47a2,2,0,0,1,1.71-1.08h0a1.43,1.43,0,0,1,1.32.8.66.66,0,0,1,.07.58c-.15.34-.69.5-1.6.77l-.09,0a4,4,0,0,0-.79.36,4,4,0,0,1-1.94.58m0-.17a3.76,3.76,0,0,0,1.87-.57,5.44,5.44,0,0,1,.82-.37l.09,0c.83-.24,1.38-.4,1.49-.67a.48.48,0,0,0-.07-.43,1.25,1.25,0,0,0-1.16-.71h0a1.77,1.77,0,0,0-1.55,1,5.76,5.76,0,0,1-1.48,1.78" transform="translate(-7.25 -4.26)"/><path class="cls-5" d="M44.63,60s-2.72.22-2.78,2.58a2.56,2.56,0,0,0,2.29,2.89s-1.1-.84-.46-3.14a7,7,0,0,1,1-2.33" transform="translate(-7.25 -4.26)"/><path class="cls-10" d="M28.82,74.49s.79,3-1.19,4.38-2.79,6.07-1.57,7.23.24-.52.21-1.56a6,6,0,0,1,1.77-5,5.18,5.18,0,0,0,1.25-5.2c-.26-.93-.47.12-.47.12" transform="translate(-7.25 -4.26)"/><path class="cls-11" d="M26.6,86.59c-.1,0-.26-.1-.6-.42a3.43,3.43,0,0,1-.58-2.62c.13-1.66.87-3.85,2.16-4.75,1.91-1.31,1.17-4.26,1.16-4.29v0c0-.21.13-.56.32-.57s.22.13.31.45a5.28,5.28,0,0,1-1.27,5.28,5.82,5.82,0,0,0-1.75,4.82v.08a5.16,5.16,0,0,0,.26,1.2c.14.48.22.74.07.83a.11.11,0,0,1-.08,0m2.31-12.1c.07.26.69,3.13-1.23,4.45-1.25.87-2,3-2.08,4.62A3.27,3.27,0,0,0,26.12,86a1.66,1.66,0,0,0,.47.37,3.19,3.19,0,0,0-.15-.64,5.19,5.19,0,0,1-.26-1.23v-.09A6,6,0,0,1,28,79.51a5.13,5.13,0,0,0,1.22-5.12c-.08-.29-.14-.32-.14-.32a1.2,1.2,0,0,0-.15.42" transform="translate(-7.25 -4.26)"/><path class="cls-10" d="M29.9,74.17s-1.83,1.28-2.12,2.47A10.6,10.6,0,0,0,28.14,81c.31,1.11-1.7,3.41-1.2,3.94s2-2.25,1.91-3.82-1.1-3.34-.32-4.53,1.83-2.24,1.83-2.41-.46,0-.46,0" transform="translate(-7.25 -4.26)"/><path class="cls-11" d="M27.08,85.09a.26.26,0,0,1-.21-.1c-.28-.3.07-1,.48-1.77s.85-1.67.7-2.2a10.63,10.63,0,0,1-.36-4.4c.3-1.21,2.08-2.47,2.16-2.52h0c.11,0,.39-.14.51,0a.14.14,0,0,1,.07.13c0,.1-.14.28-.55.76a18.66,18.66,0,0,0-1.29,1.7c-.5.74-.25,1.74,0,2.79a9,9,0,0,1,.32,1.68c.07,1.33-1,3.66-1.71,4a.28.28,0,0,1-.15,0m2.86-10.84c-.14.09-1.81,1.3-2.08,2.41A10.68,10.68,0,0,0,28.22,81a4,4,0,0,1-.72,2.33c-.34.67-.7,1.36-.5,1.57,0,0,.07.06.16,0,.57-.24,1.68-2.45,1.6-3.78a9,9,0,0,0-.3-1.65c-.28-1.09-.53-2.12,0-2.93a20.82,20.82,0,0,1,1.31-1.71,5.34,5.34,0,0,0,.5-.64.84.84,0,0,0-.33.07" transform="translate(-7.25 -4.26)"/><path class="cls-10" d="M29.37,73.83a12.28,12.28,0,0,1,.53,3.27c-.15.93-1.3,2.13-.53,3.14s-.62,2.76-.26,3,.61-.26,1-1.57-.58-1.63-.35-2.41a8.6,8.6,0,0,0,.85-2.47c0-.9-.31-3.53-1.2-3" transform="translate(-7.25 -4.26)"/><path class="cls-11" d="M29.28,83.41a.37.37,0,0,1-.22-.08c-.2-.14-.07-.48.11-.94.24-.64.57-1.51.13-2.1s-.17-1.53.16-2.25a3.59,3.59,0,0,0,.35-1,12,12,0,0,0-.53-3.24l0-.06.06,0a.46.46,0,0,1,.49,0c.64.36.84,2.39.84,3.09a4,4,0,0,1-.49,1.65,5.79,5.79,0,0,0-.35.84,1,1,0,0,0,.15.83,2,2,0,0,1,.2,1.58c-.31,1.13-.52,1.59-.78,1.68l-.1,0m.19-9.54A11.28,11.28,0,0,1,30,77.11a4,4,0,0,1-.36,1c-.33.71-.67,1.44-.18,2.08s.14,1.58-.11,2.26c-.12.32-.26.68-.17.74a.16.16,0,0,0,.16,0c.25-.09.49-.88.67-1.56a1.88,1.88,0,0,0-.18-1.46,1.22,1.22,0,0,1-.17-1,7,7,0,0,1,.36-.87,3.83,3.83,0,0,0,.48-1.57c0-.9-.25-2.65-.75-2.93a.27.27,0,0,0-.26,0" transform="translate(-7.25 -4.26)"/><path class="cls-12" d="M37.61,4.71l0-.21a.17.17,0,0,1,.34,0v.21a.17.17,0,0,0,.33,0l.06-.2a.17.17,0,0,1,.33.06l0,.21a.17.17,0,0,0,.33.08l.07-.19a.17.17,0,0,1,.33.11l0,.2a.17.17,0,0,0,.31.12l.1-.18a.17.17,0,0,1,.31.15L40,5.32a.17.17,0,0,0,.29.16l.13-.16a.17.17,0,0,1,.28.18l-.1.18a.17.17,0,0,0,.28.2L41,5.73A.17.17,0,0,1,41.3,6l-.13.17a.17.17,0,0,0,.25.23l.16-.13a.17.17,0,0,1,.24.25l-.15.15a.17.17,0,0,0,.22.26l.18-.11a.17.17,0,0,1,.2.27l-.16.14a.17.17,0,0,0,.18.28l.19-.08c.19-.1.34.18.16.3l-.17.11a.17.17,0,0,0,.14.31l.2-.07a.17.17,0,0,1,.12.32l-.18.09a.17.17,0,0,0,.1.32l.21,0a.17.17,0,0,1,.08.33l-.2.07a.17.17,0,0,0,.07.33h.2a.17.17,0,0,1,0,.34l-.21,0a.17.17,0,0,0,0,.34h.21a.17.17,0,0,1,0,.34h-.21a.17.17,0,0,0,0,.34l.21,0a.17.17,0,0,1,0,.34H43a.17.17,0,0,0-.07.33l.2.07a.17.17,0,0,1-.08.33l-.21,0a.17.17,0,0,0-.1.32l.18.09a.17.17,0,0,1-.12.32l-.2-.06a.17.17,0,0,0-.14.3l.17.11c.18.12,0,.4-.16.3l-.19-.08a.17.17,0,0,0-.18.28l.16.14a.17.17,0,0,1-.2.27l-.18-.11a.17.17,0,0,0-.22.26l.15.15a.17.17,0,0,1-.24.25l-.16-.13a.17.17,0,0,0-.25.23l.13.17A.17.17,0,0,1,41,15l-.14-.15a.17.17,0,0,0-.28.2l.1.18a.17.17,0,0,1-.28.18l-.13-.16a.17.17,0,0,0-.29.16l.07.19a.17.17,0,0,1-.31.15l-.1-.18a.17.17,0,0,0-.31.12l0,.2a.17.17,0,0,1-.33.11L39,15.76a.17.17,0,0,0-.33.08l0,.21a.17.17,0,0,1-.33.06l-.06-.2A.17.17,0,0,0,38,16v.21a.17.17,0,0,1-.34,0l0-.2a.17.17,0,0,0-.34,0l0,.2a.17.17,0,0,1-.34,0V16a.17.17,0,0,0-.34,0l-.05.2a.17.17,0,0,1-.33-.06l0-.21a.17.17,0,0,0-.33-.08L35.8,16a.17.17,0,0,1-.33-.11l.05-.2a.17.17,0,0,0-.31-.12l-.1.18a.17.17,0,0,1-.31-.15l.07-.19a.17.17,0,0,0-.29-.16l-.13.16a.17.17,0,0,1-.28-.18l.09-.18a.17.17,0,0,0-.27-.2l-.14.15a.17.17,0,0,1-.27-.22l.13-.17a.17.17,0,0,0-.25-.23l-.16.13a.17.17,0,0,1-.24-.25l.15-.15A.17.17,0,0,0,33,13.8l-.18.11a.17.17,0,0,1-.2-.27l.16-.14a.17.17,0,0,0-.18-.28l-.19.08c-.19.1-.34-.18-.16-.3l.17-.11a.17.17,0,0,0-.14-.3l-.2.06a.17.17,0,0,1-.13-.32l.19-.09a.17.17,0,0,0-.1-.32l-.21,0a.17.17,0,0,1-.08-.33l.2-.07a.17.17,0,0,0-.07-.33h-.2a.17.17,0,0,1-.05-.34l.21,0a.17.17,0,0,0,0-.34h-.2a.17.17,0,0,1,0-.34h.2a.17.17,0,0,0,0-.34l-.21,0a.17.17,0,0,1,.05-.34h.2a.17.17,0,0,0,.07-.33l-.2-.07a.17.17,0,0,1,.08-.33l.21,0a.17.17,0,0,0,.1-.32l-.19-.09A.17.17,0,0,1,32.07,8l.2.07a.17.17,0,0,0,.14-.31l-.17-.11c-.18-.12,0-.4.16-.3l.19.08a.17.17,0,0,0,.18-.28L32.61,7a.17.17,0,0,1,.2-.27l.18.11a.17.17,0,0,0,.22-.26l-.15-.15a.17.17,0,0,1,.24-.25l.16.13a.17.17,0,0,0,.25-.23L33.58,6a.17.17,0,0,1,.27-.22l.14.15a.17.17,0,0,0,.27-.2l-.09-.18a.17.17,0,0,1,.28-.18l.13.16a.17.17,0,0,0,.29-.16l-.07-.19A.17.17,0,0,1,35.11,5l.1.18A.17.17,0,0,0,35.52,5l-.05-.2a.17.17,0,0,1,.33-.11l.07.19a.17.17,0,0,0,.33-.08l0-.21a.17.17,0,0,1,.33-.06l.05.2a.17.17,0,0,0,.34,0V4.52a.17.17,0,0,1,.34,0l0,.21a.17.17,0,0,0,.34,0" transform="translate(-7.25 -4.26)"/><path class="cls-13" d="M37.81,16.42a.26.26,0,0,1-.26-.23l0-.2a.09.09,0,0,0-.08-.08.08.08,0,0,0-.08.08l0,.2a.25.25,0,0,1-.27.23.26.26,0,0,1-.25-.26V16a.07.07,0,0,0-.07-.08.08.08,0,0,0-.09.06l0,.2a.26.26,0,0,1-.51-.09l0-.21a.07.07,0,0,0-.07-.09s-.07,0-.1,0l-.07.19a.25.25,0,0,1-.32.15.24.24,0,0,1-.17-.31l0-.2a.08.08,0,0,0,0-.1.1.1,0,0,0-.11,0l-.1.18a.24.24,0,0,1-.33.11.25.25,0,0,1-.13-.33l.07-.19a.08.08,0,0,0,0-.11s-.07,0-.11,0l-.13.17a.25.25,0,0,1-.34.06.24.24,0,0,1-.09-.34l.1-.18a.09.09,0,0,0,0-.11.08.08,0,0,0-.11,0l-.14.15a.24.24,0,0,1-.35,0,.25.25,0,0,1-.05-.35l.13-.17s0-.1,0-.11,0-.05-.11,0l-.16.13a.26.26,0,0,1-.35-.37l.14-.16a.08.08,0,0,0-.1-.13l-.18.12a.26.26,0,0,1-.35-.07.25.25,0,0,1,.05-.35l.16-.13a.08.08,0,0,0,0-.11.07.07,0,0,0-.1,0l-.19.08a.26.26,0,0,1-.25-.45l.18-.11a.09.09,0,0,0,0-.11.1.1,0,0,0-.11,0l-.19.06a.25.25,0,0,1-.32-.15.25.25,0,0,1,.13-.33l.19-.09a.08.08,0,0,0,0-.1A.08.08,0,0,0,32,12l-.2,0a.25.25,0,0,1-.3-.18.26.26,0,0,1,.17-.32l.2-.06a.08.08,0,0,0,.06-.1s0-.07-.09-.06h-.21a.25.25,0,0,1-.27-.23.24.24,0,0,1,.21-.28l.2,0a.08.08,0,0,0,.07-.09.09.09,0,0,0-.08-.08h-.21a.26.26,0,0,1,0-.52h.21a.08.08,0,0,0,.08-.08.09.09,0,0,0-.07-.09l-.2,0a.24.24,0,0,1-.21-.28.25.25,0,0,1,.27-.23h.21c.07,0,.08,0,.09-.06a.08.08,0,0,0-.06-.1l-.2-.06a.26.26,0,0,1-.17-.31.25.25,0,0,1,.3-.19l.2,0a.09.09,0,0,0,.1-.06.08.08,0,0,0,0-.1l-.19-.09a.25.25,0,0,1-.13-.33A.25.25,0,0,1,32.1,8l.19.06a.1.1,0,0,0,.11,0,.09.09,0,0,0,0-.11l-.18-.11a.26.26,0,0,1,.25-.45l.19.09a.07.07,0,0,0,.1,0,.08.08,0,0,0,0-.11l-.16-.13a.25.25,0,0,1-.05-.35.26.26,0,0,1,.35-.07l.18.12a.08.08,0,0,0,.1-.13L33,6.53a.26.26,0,0,1,0-.36.25.25,0,0,1,.35,0l.16.13c.06,0,.11,0,.11,0s.06-.06,0-.11L33.51,6a.25.25,0,0,1,.05-.35.24.24,0,0,1,.35,0l.14.15a.08.08,0,0,0,.11,0,.08.08,0,0,0,0-.11l-.1-.18a.25.25,0,0,1,.43-.27l.13.16c0,.06.09,0,.11,0a.08.08,0,0,0,0-.11l-.07-.19a.25.25,0,0,1,.13-.33.24.24,0,0,1,.33.11l.1.18a.1.1,0,0,0,.11,0,.08.08,0,0,0,0-.1l0-.2a.25.25,0,0,1,.17-.31.25.25,0,0,1,.32.15l.07.19c0,.07.09.06.1.05a.07.07,0,0,0,.07-.09l0-.21a.26.26,0,0,1,.51-.09l0,.2a.08.08,0,0,0,.09.06.07.07,0,0,0,.07-.08V4.52a.26.26,0,0,1,.25-.26.26.26,0,0,1,.27.23l0,.2a.08.08,0,0,0,.08.08.09.09,0,0,0,.08-.08l0-.2a.26.26,0,0,1,.27-.23.25.25,0,0,1,.24.26v.21a.08.08,0,0,0,.08.08.08.08,0,0,0,.09-.06l.05-.2a.26.26,0,0,1,.51.09l0,.21a.07.07,0,0,0,.07.09s.07,0,.1-.05L39,4.7a.25.25,0,0,1,.32-.15.25.25,0,0,1,.17.31l-.05.2a.08.08,0,0,0,.05.1.1.1,0,0,0,.11,0l.1-.18A.24.24,0,0,1,40,4.83a.25.25,0,0,1,.13.33l-.07.19a.08.08,0,0,0,0,.11s.07,0,.11,0l.12-.16a.25.25,0,0,1,.35-.07.25.25,0,0,1,.09.34l-.1.18c0,.07,0,.11,0,.11a.08.08,0,0,0,.11,0L41,5.67a.24.24,0,0,1,.35,0,.26.26,0,0,1,0,.35l-.13.17s0,.1,0,.11a.09.09,0,0,0,.12,0l.16-.13a.25.25,0,0,1,.35,0,.26.26,0,0,1,0,.36l-.14.15a.08.08,0,0,0,.1.13L42,6.69a.26.26,0,0,1,.35.07.26.26,0,0,1,0,.35l-.16.13a.1.1,0,0,0,0,.11s0,.07.11,0l.19-.09a.25.25,0,0,1,.34.11.27.27,0,0,1-.09.34l-.18.11a.09.09,0,0,0,0,.11.09.09,0,0,0,.1,0l.2-.06a.25.25,0,0,1,.32.15.25.25,0,0,1-.13.33l-.19.09a.08.08,0,0,0,0,.1.08.08,0,0,0,.1.06l.2,0a.25.25,0,0,1,.3.19.26.26,0,0,1-.17.31L43,9.2a.08.08,0,0,0-.06.1s0,.07.09.06h.21a.25.25,0,0,1,.27.23.24.24,0,0,1-.21.28l-.2,0A.09.09,0,0,0,43,10a.08.08,0,0,0,.08.08h.21a.26.26,0,0,1,0,.52h-.21a.09.09,0,0,0-.08.08.08.08,0,0,0,.07.09l.2,0a.24.24,0,0,1,.21.28.25.25,0,0,1-.27.23H43c-.07,0-.08,0-.09.06a.08.08,0,0,0,.06.1l.2.06a.26.26,0,0,1,.17.32A.25.25,0,0,1,43,12l-.2,0a.08.08,0,0,0-.1.05.08.08,0,0,0,0,.1l.19.09a.25.25,0,0,1,.13.33.25.25,0,0,1-.32.15l-.2-.06a.09.09,0,0,0-.1,0,.09.09,0,0,0,0,.11l.18.11a.27.27,0,0,1,.09.34.25.25,0,0,1-.34.11l-.19-.08a.09.09,0,0,0-.11,0,.1.1,0,0,0,0,.11l.16.13a.26.26,0,0,1,0,.35A.26.26,0,0,1,42,14l-.18-.12a.08.08,0,0,0-.1.13l.14.16a.26.26,0,0,1-.35.37l-.16-.13a.09.09,0,0,0-.12,0s0,.06,0,.11l.13.17a.26.26,0,0,1,0,.35A.24.24,0,0,1,41,15l-.14-.15a.08.08,0,0,0-.11,0,.08.08,0,0,0,0,.11l.1.18a.26.26,0,0,1-.44.28l-.12-.17c0-.06-.09,0-.11,0a.08.08,0,0,0,0,.11l.07.19a.25.25,0,0,1-.13.33.24.24,0,0,1-.33-.11l-.1-.18a.1.1,0,0,0-.11,0,.08.08,0,0,0-.05.1l.05.2a.24.24,0,0,1-.17.31A.25.25,0,0,1,39,16l-.07-.19c0-.07-.09-.06-.1,0a.07.07,0,0,0-.07.09l0,.21a.25.25,0,0,1-.21.28.24.24,0,0,1-.3-.19l-.05-.2a.08.08,0,0,0-.09-.06.08.08,0,0,0-.08.08v.21a.25.25,0,0,1-.24.26h0m-1.08-.73h0A.24.24,0,0,1,37,16v.21a.07.07,0,0,0,.08.08s.08,0,.09-.07l0-.2a.26.26,0,0,1,.52,0l0,.2c0,.08.08.08.09.07a.07.07,0,0,0,.08-.08V16a.26.26,0,0,1,.51-.06l.05.2a.08.08,0,0,0,.1.06.08.08,0,0,0,.07-.09l0-.21a.25.25,0,0,1,.19-.28.26.26,0,0,1,.31.15l.07.2a.09.09,0,0,0,.11.05.08.08,0,0,0,0-.1l0-.21a.25.25,0,0,1,.16-.3.25.25,0,0,1,.32.12l.1.18a.08.08,0,0,0,.11,0,.07.07,0,0,0,0-.1l-.08-.2a.26.26,0,0,1,.45-.24l.13.16a.09.09,0,0,0,.11,0,.1.1,0,0,0,0-.12l-.1-.18a.24.24,0,0,1,.07-.33.25.25,0,0,1,.34,0l.14.15a.08.08,0,0,0,.12,0,.08.08,0,0,0,0-.12l-.12-.16a.25.25,0,0,1,0-.34.24.24,0,0,1,.34,0l.16.13a.07.07,0,0,0,.11,0,.09.09,0,0,0,0-.12l-.14-.15a.25.25,0,0,1,0-.34.26.26,0,0,1,.34,0l.17.11a.09.09,0,0,0,.12,0,.1.1,0,0,0,0-.12l-.16-.13a.26.26,0,0,1,0-.34.25.25,0,0,1,.33-.09l.18.09a.08.08,0,0,0,.11,0,.07.07,0,0,0,0-.11L42.42,13a.26.26,0,0,1,.22-.47l.2.07a.08.08,0,0,0,.1-.05s0-.08,0-.11l-.19-.09a.25.25,0,0,1-.14-.31.27.27,0,0,1,.3-.18l.2,0a.08.08,0,0,0,.1-.06.08.08,0,0,0-.06-.1l-.19-.06a.27.27,0,0,1-.18-.3.27.27,0,0,1,.27-.21l.21,0a.09.09,0,0,0,.09-.08.08.08,0,0,0-.07-.09L43,11a.26.26,0,0,1,0-.51l.21,0a.08.08,0,0,0,0-.16l-.21,0a.24.24,0,0,1-.24-.24A.26.26,0,0,1,43,9.73l.2,0a.08.08,0,0,0,.07-.09.07.07,0,0,0-.09-.07H43a.26.26,0,0,1-.27-.21.27.27,0,0,1,.18-.3L43.11,9a.08.08,0,0,0,.06-.1.08.08,0,0,0-.1-.06l-.2,0a.27.27,0,0,1-.3-.18.25.25,0,0,1,.14-.31l.19-.09c.07,0,0-.09,0-.11a.08.08,0,0,0-.1-.05l-.2.07A.27.27,0,0,1,42.32,8a.27.27,0,0,1,.1-.33l.17-.11a.07.07,0,0,0,0-.11.08.08,0,0,0-.11,0l-.18.09A.25.25,0,0,1,42,7.45a.26.26,0,0,1,0-.34L42.21,7a.1.1,0,0,0,0-.12.09.09,0,0,0-.12,0L41.94,7a.26.26,0,0,1-.34,0,.25.25,0,0,1,0-.34l.14-.15a.09.09,0,0,0,0-.12.08.08,0,0,0-.11,0l-.16.14a.27.27,0,0,1-.38-.36l.12-.16a.08.08,0,0,0,0-.12.08.08,0,0,0-.12,0L41,5.94a.25.25,0,0,1-.34,0,.24.24,0,0,1-.07-.33l.1-.18a.08.08,0,0,0,0-.11.07.07,0,0,0-.11,0l-.13.17a.26.26,0,0,1-.33.07.25.25,0,0,1-.12-.32L40,5.1C40,5,40,5,40,5a.08.08,0,0,0-.11,0l-.1.19a.26.26,0,0,1-.32.11.25.25,0,0,1-.16-.3l0-.2a.09.09,0,0,0,0-.11.09.09,0,0,0-.11,0l-.07.2a.26.26,0,0,1-.31.15.25.25,0,0,1-.19-.28l0-.21a.08.08,0,0,0-.07-.09.08.08,0,0,0-.1.06l-.05.2a.26.26,0,0,1-.51-.06V4.52a.08.08,0,0,0-.08-.08s-.08,0-.09.07l0,.21a.26.26,0,0,1-.52,0l0-.21c0-.08-.08-.08-.09-.07a.08.08,0,0,0-.08.08v.21a.26.26,0,0,1-.51.06l0-.2a.09.09,0,0,0-.1-.06.08.08,0,0,0-.07.09l0,.21a.25.25,0,0,1-.19.28A.26.26,0,0,1,35.79,5l-.07-.2a.09.09,0,0,0-.11,0,.09.09,0,0,0,0,.11l0,.2a.25.25,0,0,1-.16.3.26.26,0,0,1-.32-.11L35,5a.08.08,0,0,0-.11,0s-.07,0,0,.11l.07.19a.25.25,0,0,1-.11.32.27.27,0,0,1-.34-.07l-.12-.17a.07.07,0,0,0-.11,0,.07.07,0,0,0,0,.11l.1.18a.24.24,0,0,1-.07.33.25.25,0,0,1-.34,0l-.15-.15a.07.07,0,0,0-.11,0,.09.09,0,0,0,0,.12l.13.16a.27.27,0,0,1-.38.36l-.16-.14a.08.08,0,0,0-.11,0,.09.09,0,0,0,0,.12l.14.15a.25.25,0,0,1,0,.34.26.26,0,0,1-.34,0l-.17-.11a.09.09,0,0,0-.12,0,.1.1,0,0,0,0,.12l.16.13a.26.26,0,0,1,.05.34.25.25,0,0,1-.33.09l-.18-.09a.08.08,0,0,0-.11,0,.07.07,0,0,0,0,.11l.18.11a.26.26,0,0,1,.09.33.25.25,0,0,1-.31.14L32,8.11a.08.08,0,0,0-.1.05.07.07,0,0,0,0,.11l.19.09a.25.25,0,0,1,.14.31.27.27,0,0,1-.3.18l-.2,0a.08.08,0,0,0-.1.06.08.08,0,0,0,.06.1L32,9a.27.27,0,0,1,.18.3.26.26,0,0,1-.27.21h-.21a.07.07,0,0,0-.09.07.08.08,0,0,0,.07.09l.2,0a.26.26,0,0,1,.21.27.24.24,0,0,1-.24.24l-.21,0a.08.08,0,0,0,0,.16l.21,0a.26.26,0,0,1,0,.51l-.2,0a.08.08,0,0,0-.07.09.08.08,0,0,0,.09.08l.21,0a.27.27,0,0,1,.27.21.27.27,0,0,1-.18.3l-.19.06a.08.08,0,0,0-.06.1.08.08,0,0,0,.1.06l.2,0a.27.27,0,0,1,.3.18.25.25,0,0,1-.14.31l-.19.09a.08.08,0,0,0,0,.11.08.08,0,0,0,.1.05l.2-.07a.25.25,0,0,1,.31.14.25.25,0,0,1-.09.33l-.18.11a.07.07,0,0,0,0,.11.08.08,0,0,0,.11,0l.18-.09a.25.25,0,0,1,.33.09.26.26,0,0,1-.05.34l-.16.13a.1.1,0,0,0,0,.12.09.09,0,0,0,.12,0l.17-.11a.26.26,0,0,1,.34,0,.25.25,0,0,1,0,.34l-.14.15a.09.09,0,0,0,0,.12.07.07,0,0,0,.11,0l.16-.13a.24.24,0,0,1,.34,0,.25.25,0,0,1,0,.34l-.13.16a.09.09,0,0,0,0,.12.07.07,0,0,0,.11,0l.15-.15a.25.25,0,0,1,.34,0,.24.24,0,0,1,.07.33l-.1.18a.09.09,0,0,0,0,.12.09.09,0,0,0,.11,0l.12-.16a.27.27,0,0,1,.34-.08.25.25,0,0,1,.11.32l-.07.2a.07.07,0,0,0,0,.1.08.08,0,0,0,.11,0l.1-.18a.25.25,0,0,1,.32-.12.25.25,0,0,1,.16.3l0,.21a.08.08,0,0,0,0,.1.09.09,0,0,0,.11-.05l.07-.2a.26.26,0,0,1,.31-.15.25.25,0,0,1,.19.28l0,.21a.08.08,0,0,0,.07.09.09.09,0,0,0,.1-.06l0-.2a.26.26,0,0,1,.25-.2" transform="translate(-7.25 -4.26)"/><path class="cls-10" d="M28.61,73.88a1.82,1.82,0,0,0,2.32-.9c1.38-2.76-1.05-9.28-1.16-12.84s-.93-15.92,6.81-20.38S51.05,32.7,59,33.5,72.1,41.15,73.34,47.31s.84,17.28,2,18.69a76.93,76.93,0,0,0,.73-13.18c-.38-5.63-.8-24.48-7.81-27.4S44.68,23.16,38.74,29.5,27.06,40.93,26.16,45.89C25.4,50.07,28,65.57,28.92,71.44c.19,1.11-.47,2.17-.31,2.44" transform="translate(-7.25 -4.26)"/><path class="cls-14" d="M29.33,74.09a2.62,2.62,0,0,1-.76-.12l0,0,0,0c-.08-.15,0-.39.09-.74a3.92,3.92,0,0,0,.22-1.73c-1-5.85-3.53-21.37-2.76-25.59s4.83-8.35,9.55-13.25c1-1,2-2.09,3-3.18,3.66-3.9,10.61-5.14,14.44-5.53,5.73-.59,11.71,0,15.22,1.43,6.47,2.69,7.37,18.88,7.75,25.79,0,.64.07,1.21.1,1.68A77.93,77.93,0,0,1,75.47,66l0,.19-.13-.15c-.65-.77-.84-4.23-1.06-8.24a80.25,80.25,0,0,0-1-10.49C72,41.09,66.68,34.36,59,33.58c-8.59-.86-15.81,2.5-22.33,6.25-7.33,4.23-6.93,15.51-6.78,19.75,0,.21,0,.39,0,.56a30.71,30.71,0,0,0,.73,4.68C31.24,68,31.9,71.23,31,73a1.78,1.78,0,0,1-1.68,1.07m-.66-.27A1.73,1.73,0,0,0,30.85,73c.87-1.74.21-5-.43-8.1a30.81,30.81,0,0,1-.74-4.71c0-.16,0-.35,0-.55-.16-4.27-.55-15.63,6.87-19.91,6.54-3.77,13.79-7.14,22.43-6.27,7.82.79,13.19,7.58,14.46,13.88a84.37,84.37,0,0,1,1,10.52c.2,3.7.38,6.94.9,8A76.91,76.91,0,0,0,76,52.82c0-.47-.06-1-.1-1.68-.38-6.88-1.28-23-7.65-25.64-3.49-1.45-9.43-2-15.14-1.42-6.46.66-11.68,2.66-14.33,5.48-1,1.09-2,2.15-3,3.18C31.05,37.62,27,41.83,26.25,45.9S28.05,65.59,29,71.43a4,4,0,0,1-.22,1.8,1.94,1.94,0,0,0-.12.59" transform="translate(-7.25 -4.26)"/><polygon class="cls-12" points="22.64 65.66 24.06 65.48 24.1 66.53 22.68 66.61 22.64 65.66"/><path class="cls-13" d="M29.85,71l0-1.11,1.59-.21,0,1.24ZM30,70l0,.78,1.24-.07,0-.87Z" transform="translate(-7.25 -4.26)"/><polygon class="cls-12" points="22.38 62.99 22.49 63.89 23.82 63.56 23.67 62.65 22.38 62.99"/><path class="cls-13" d="M29.67,68.26l-.13-1.07L31,66.8l.19,1.09Zm.06-.94.09.73L31,67.76,30.85,67Z" transform="translate(-7.25 -4.26)"/><polygon class="cls-12" points="21.97 60.32 22.12 61.23 23.33 60.96 23.17 60.16 21.97 60.32"/><path class="cls-13" d="M29.3,65.59l-.18-1.08,1.37-.18.2,1Zm0-.93.12.72,1-.22-.13-.64Z" transform="translate(-7.25 -4.26)"/><polygon class="cls-12" points="21.59 58.25 21.74 59.04 22.91 58.85 22.77 58.09 21.59 58.25"/><path class="cls-13" d="M28.93,63.4l-.19-1,1.36-.19.17.94Zm0-.82.11.62,1-.16L30,62.45Z" transform="translate(-7.25 -4.26)"/><polygon class="cls-12" points="21.28 55.83 21.28 56.48 22.55 56.48 22.51 55.75 21.28 55.83"/><path class="cls-13" d="M29.9,60.83H28.45V60l1.4-.09Zm-1.28-.17h1.1l0-.56-1.06.07Z" transform="translate(-7.25 -4.26)"/><polygon class="cls-12" points="21.36 53.54 21.33 54.31 22.47 54.35 22.47 53.61 21.36 53.54"/><path class="cls-13" d="M29.81,58.71l-1.32-.06.05-.94,1.27.08Zm-1.14-.22,1,0V58l-.93-.06Z" transform="translate(-7.25 -4.26)"/><polygon class="cls-12" points="21.46 51.89 21.42 52.56 22.44 52.61 22.45 51.94 21.46 51.89"/><path class="cls-13" d="M29.78,57l-1.2-.07.05-.84,1.16.06Zm-1-.23.85,0v-.49l-.82,0Z" transform="translate(-7.25 -4.26)"/><polygon class="cls-12" points="21.63 49.37 21.57 50.19 22.5 50.19 22.55 49.46 21.63 49.37"/><path class="cls-13" d="M29.84,54.54H28.73l.07-1,1.1.1Zm-.92-.17h.76l0-.57L29,53.73Z" transform="translate(-7.25 -4.26)"/><polygon class="cls-12" points="21.79 47.33 21.73 47.99 22.68 48.07 22.77 47.33 21.79 47.33"/><path class="cls-13" d="M30,52.42l-1.12-.09L29,51.5h1.17Zm-.93-.25.78.07.07-.57h-.81Z" transform="translate(-7.25 -4.26)"/><polygon class="cls-12" points="22.01 44.83 21.92 45.81 22.99 45.99 23.18 45.05 22.01 44.83"/><path class="cls-13" d="M30.31,50.35l-1.23-.2L29.19,49l1.34.27Zm-1-.35.9.15.16-.77-1-.19Z" transform="translate(-7.25 -4.26)"/><polygon class="cls-12" points="22.34 42.51 22.17 43.45 23.55 43.6 23.81 42.76 22.34 42.51"/><path class="cls-13" d="M30.86,48l-1.54-.18.21-1.11,1.65.29Zm-1.33-.33,1.21.14.21-.68-1.28-.22Z" transform="translate(-7.25 -4.26)"/><polygon class="cls-12" points="22.83 40.31 22.55 41.17 24.22 41.68 24.78 40.44 22.83 40.31"/><path class="cls-13" d="M31.52,46l-1.83-.55.34-1,2.14.14Zm-1.61-.66,1.51.45.49-1-1.76-.11Z" transform="translate(-7.25 -4.26)"/><polygon class="cls-12" points="23.81 36.61 23.3 37.47 25.52 39.16 26.45 37.9 23.81 36.61"/><path class="cls-13" d="M32.8,43.54l-2.36-1.78.59-1,2.81,1.37Zm-2.13-1.83,2.09,1.59.82-1.1L31.1,41Z" transform="translate(-7.25 -4.26)"/><polygon class="cls-12" points="27.47 33.22 25.82 33.99 27.94 36.45 29.25 35.54 27.47 33.22"/><path class="cls-13" d="M35.18,40.82l-2.25-2.6,1.82-.85,1.88,2.45Zm-2-2.54,2,2.31,1.17-.81L34.7,37.59Z" transform="translate(-7.25 -4.26)"/><polygon class="cls-12" points="29.78 32.18 31.32 34.38 32.95 33.52 30.94 30.87 29.78 32.18"/><path class="cls-13" d="M38.55,38.75l-1.62-2.32L38.2,35l2.14,2.81Zm-1.4-2.31,1.45,2.09,1.48-.78-1.89-2.48Z" transform="translate(-7.25 -4.26)"/><polygon class="cls-12" points="33.63 29.88 34.91 32.55 36.83 31.71 35.1 28.92 33.63 29.88"/><path class="cls-13" d="M42.12,36.93l-1.35-2.82,1.61-1L44.21,36ZM41,34.17l1.22,2.53L44,35.93l-1.64-2.62Z" transform="translate(-7.25 -4.26)"/><polygon class="cls-12" points="38.13 27.79 39.2 30.8 41.19 30.18 39.88 27.21 38.13 27.79"/><path class="cls-13" d="M46.4,35.17,45.28,32l1.91-.63,1.38,3.13Zm-.9-3.07,1,2.86,1.82-.57-1.24-2.81Z" transform="translate(-7.25 -4.26)"/><polygon class="cls-12" points="42.76 26.02 43.64 29.6 45.96 29.25 44.84 25.61 42.76 26.02"/><path class="cls-13" d="M50.83,34l-.92-3.75,2.24-.44,1.18,3.81Zm-.71-3.61L51,33.76l2.14-.32L52,30Z" transform="translate(-7.25 -4.26)"/><polygon class="cls-12" points="49.32 25.88 49.32 29.09 51.23 29.21 51.58 25.96 49.32 25.88"/><path class="cls-13" d="M58.56,33.57l-2.07-.13V30.05l2.45.09Zm-1.9-.3,1.75.11.33-3.07-2.08-.08Z" transform="translate(-7.25 -4.26)"/><polygon class="cls-12" points="55.53 27.39 54.5 29.79 56.44 30.53 57.48 27.6 55.53 27.39"/><path class="cls-13" d="M63.75,34.91l-2.11-.81,1.09-2.54,2.12.23ZM61.87,34l1.78.68,1-2.74-1.77-.2Z" transform="translate(-7.25 -4.26)"/><polygon class="cls-12" points="60 29.21 58.47 31.66 60.2 32.98 61.74 30.26 60 29.21"/><path class="cls-13" d="M67.48,37.37,65.61,36l1.62-2.59,1.89,1.13ZM65.84,35.9l1.58,1.21,1.46-2.55-1.6-1Z" transform="translate(-7.25 -4.26)"/><polygon class="cls-12" points="63.8 32.98 61.89 34.67 62.94 35.99 65.05 34.48 63.8 32.98"/><path class="cls-13" d="M70.18,40.37,69,38.92l2-1.8,1.36,1.64Zm-.92-1.43.95,1.19,2-1.4-1.13-1.37Z" transform="translate(-7.25 -4.26)"/><polygon class="cls-12" points="64.01 37.64 65.77 36.51 66.45 37.98 64.65 38.85 64.01 37.64"/><path class="cls-13" d="M71.87,43.23l-.72-1.35,1.91-1.24.76,1.65Zm-.49-1.3L72,43l1.64-.79L73,40.9Z" transform="translate(-7.25 -4.26)"/><polygon class="cls-12" points="65.41 40.65 67.46 40.08 67.69 41.01 65.77 41.76 65.41 40.65"/><path class="cls-13" d="M73,46.13l-.42-1.28,2.23-.62.27,1.09ZM72.78,45l.3.93,1.77-.69-.2-.76Z" transform="translate(-7.25 -4.26)"/><polygon class="cls-12" points="66.04 42.84 67.81 42.51 68.01 43.46 66.19 43.59 66.04 42.84"/><path class="cls-13" d="M73.37,48,73.2,47l1.93-.36.24,1.13Zm0-.78.11.59,1.65-.12L75,46.87Z" transform="translate(-7.25 -4.26)"/><polygon class="cls-12" points="66.46 45.41 67.8 45.29 68.01 45.99 66.57 46.34 66.46 45.41"/><path class="cls-13" d="M73.75,50.71l-.13-1.11,1.5-.14.25.86Zm.06-1,.09.74,1.25-.3L75,49.64Z" transform="translate(-7.25 -4.26)"/><polygon class="cls-12" points="66.72 47.87 68.01 47.74 68.31 49.04 66.8 49.04 66.72 47.87"/><path class="cls-13" d="M75.67,53.39H74l-.09-1.34,1.45-.14Zm-1.54-.17h1.32l-.26-1.13-1.13.12Z" transform="translate(-7.25 -4.26)"/><polygon class="cls-12" points="66.9 50.39 68.31 50.5 68.49 51.47 66.97 51.47 66.9 50.39"/><path class="cls-13" d="M75.85,55.82H74.14l-.08-1.26,1.58.12Zm-1.55-.18h1.34l-.15-.8-1.24-.09Z" transform="translate(-7.25 -4.26)"/><polygon class="cls-12" points="67.05 52.92 68.31 52.92 68.31 53.79 67.11 53.92 67.05 52.92"/><path class="cls-13" d="M74.28,58.28l-.07-1.18h1.44v1Zm.12-1,0,.81,1-.11v-.7Z" transform="translate(-7.25 -4.26)"/><polygon class="cls-12" points="67.17 55.17 67.23 56.34 68.49 55.96 68.49 55.17 67.17 55.17"/><path class="cls-13" d="M74.41,60.72l-.07-1.37h1.49v.94Zm.11-1.2,0,1,1.08-.33v-.64Z" transform="translate(-7.25 -4.26)"/><polygon class="cls-12" points="67.34 57.69 68.6 57.32 68.31 58.19 67.42 58.61 67.34 57.69"/><path class="cls-13" d="M74.6,63l-.1-1.11L76,61.45l-.36,1.07Zm.09-1,.06.72.74-.35.23-.68Z" transform="translate(-7.25 -4.26)"/><path class="cls-12" d="M28.54,61.05s2.95,14.3.07,12.83c-.29-.14.15-1.53-.08-2.43-.31-1.28-2.05-2.75-3.39-6.29-2.29-6-.71-11.76-1.47-14.4s-1.2-18.19,1.14-24,6.15-15.5,22-18.13S70.7,18,73.1,23.85s5.38,20.73,4.67,26.68-2.39,15.22-2.39,15.22.33-13.2-1.36-19.6S71.52,34.31,60.1,31.61,48.36,32,47.43,32a3.81,3.81,0,0,0-3.1,1.24c-.81,1-1.3-.56-2.06.22s-1.09,1.4-1.91,1.46-1.85.45-2,1.24-4.55,2.24-5.15,2.52a5.6,5.6,0,0,0-2.35,4c-.21,2.12-1,3.1-1.3,4.37a132.07,132.07,0,0,0-1,14.08" transform="translate(-7.25 -4.26)"/><path class="cls-13" d="M29,74.08a.9.9,0,0,1-.42-.12c-.2-.09-.16-.46-.11-1a5,5,0,0,0,0-1.49,6.63,6.63,0,0,0-1-1.82,20.45,20.45,0,0,1-2.39-4.45,26.16,26.16,0,0,1-1.28-10.41,15.54,15.54,0,0,0-.19-4c-.78-2.69-1.23-18.15,1.14-24l.06-.13c2.33-5.77,6.23-15.42,22-18A22.34,22.34,0,0,1,65.08,13a27.71,27.71,0,0,1,8.1,10.82c2.29,5.6,5.4,20.62,4.68,26.72-.7,5.89-2.38,15.13-2.39,15.22l-.18,0c0-.13.31-13.25-1.35-19.56-.09-.34-.18-.67-.26-1-1.52-5.87-2.83-10.94-13.6-13.48-9-2.14-11.12-.62-12,0a1,1,0,0,1-.64.3,3.69,3.69,0,0,0-3,1.21.81.81,0,0,1-1.21.2c-.3-.17-.55-.29-.86,0l-.46.5c-.48.55-.83.94-1.5,1-.83,0-1.78.44-1.93,1.16s-2.33,1.49-4.37,2.27l-.83.32a5.52,5.52,0,0,0-2.3,3.89,10,10,0,0,1-.84,3.07A9.46,9.46,0,0,0,29.63,47a131,131,0,0,0-1,14c.12.57,2.37,11.65.73,12.91a.58.58,0,0,1-.37.13M51.26,8.37a27,27,0,0,0-4.41.37C31.15,11.35,27.27,21,25,26.68l-.06.14c-2.3,5.7-1.89,21.31-1.14,23.91A15,15,0,0,1,24,54.79a25.91,25.91,0,0,0,1.26,10.34,20.19,20.19,0,0,0,2.37,4.42,6.77,6.77,0,0,1,1,1.88,5,5,0,0,1,0,1.54c0,.34-.07.79,0,.84a.54.54,0,0,0,.6,0c1.57-1.19-.77-12.63-.79-12.75h0a132.63,132.63,0,0,1,1-14.11,10.26,10.26,0,0,1,.48-1.34,10,10,0,0,0,.83-3,5.57,5.57,0,0,1,2.4-4l.84-.33c1.24-.46,4.14-1.56,4.26-2.13.16-.81,1.2-1.24,2.09-1.31.59,0,.91-.39,1.38-.93l.46-.5c.41-.42.76-.23,1.07-.07s.61.33,1-.15a3.89,3.89,0,0,1,3.18-1.27c.15,0,.3-.1.53-.27,1-.72,3-2.21,12.15-.06C71,34.1,72.32,39.21,73.85,45.14c.08.33.17.66.26,1,1.38,5.27,1.41,15.26,1.37,18.54.46-2.6,1.65-9.45,2.21-14.15.72-6.07-2.39-21.05-4.67-26.63a27.46,27.46,0,0,0-8-10.75A21.49,21.49,0,0,0,51.26,8.37" transform="translate(-7.25 -4.26)"/><path class="cls-5" d="M23.62,50.08s1.15-3.84,2.14-6.15a45.55,45.55,0,0,1,2.69-5l-1.18-1.18,3.81-4.92.84,1.2,2.36-3.19.85,1.12,4.6-3-.33-1.55,5.28-3.12-.5-1.57c.54-.32,9.47-3.35,15.45-1.21l.75,1.71s4.7,1.49,4.7,1.92v2.14a30.93,30.93,0,0,1,4.48,3.68l.64-1.12,1.71,2.56,1-1.44,2.24,3.36-.64,1.28a30.57,30.57,0,0,1,2.43,3.8s-.39-2.33-1-5.24c-.53-2.51-1.26-5.56-1.84-7.28l-2.9-2.17L71.27,23,67.85,20.1l.32-1s-2.88-2.84-5.44-3.48l-.32.75s-2.78-1.92-4.17-1.92l-.53,1.5a21.37,21.37,0,0,0-12.5.42l-1-1.92-3.73,1.71L39.4,14.93l-6.08,3.54.45,1.22s-4.12,3.46-4.12,3.78a4.3,4.3,0,0,0,.71,1.25s-4.06,4.08-7,12.09a71.33,71.33,0,0,0,.31,13.27" transform="translate(-7.25 -4.26)"/><path class="cls-13" d="M25.49,25.41q.6-.87,1.23-1.74c.21-.29.43-.57.64-.85a8,8,0,0,1,.71-.83l0,.07L28,21.42v0l0,0,1.47-1.49.06-.06.08,0,.58.32-.15,0,1.82-1.78,0,.25-.79-.37-.23-.11.2-.16,2.66-2.14.1-.08.12.07.79.49h-.22c.55-.43,1.11-.84,1.7-1.23.29-.19.59-.38.9-.55a6.25,6.25,0,0,1,1-.45l-.14.31-.39-.88-.1-.22.22-.09L41,12l.19-.07.11.18.51.89-.31-.1c.34-.15.67-.29,1-.42s.69-.25,1-.36a12.63,12.63,0,0,1,2.14-.53l-.22.28-.06-.68,0-.23.24,0,2.78-.44.17,0,.09.15.4.66-.28-.11a8.09,8.09,0,0,1,1.07-.21,9.45,9.45,0,0,1,1.07-.09,8,8,0,0,1,1.09,0,7.67,7.67,0,0,1,1.07.16l-.29.26-.07-.91,0-.32.32.07,3.06.67.16,0,0,.17,0,.64-.22-.21.74.08q.36.06.72.15a6.59,6.59,0,0,1,.72.22,3.93,3.93,0,0,1,.68.34l-.32.1.33-.72.08-.2.19.09,3.11,1.44.1,0v.1l0,.62-.07-.12,1.81,1.23-.2,0,.62-.64.08-.09.1.07,2.25,1.64,0,0v0l0,.77,0-.07c.73.56,1.44,1.15,2.14,1.76a26,26,0,0,1,2,1.93c-.66-.65-1.36-1.26-2.07-1.85S67.76,17.25,67,16.71l0,0v0l-.08-.77L67,16c-.77-.52-1.53-1-2.29-1.58l.18,0-.6.66-.08.09L64.05,15l-1.83-1.2-.07-.05V13.7l-.06-.62.1.15-3.14-1.38.28-.11-.31.73-.1.23-.22-.14a4.35,4.35,0,0,0-1.26-.49c-.23-.05-.46-.1-.69-.13s-.46-.06-.69-.07h-.2v-.2L55.79,11l.18.2-3.06-.65.28-.25.08.91,0,.31L53,11.48a8.75,8.75,0,0,0-1-.14,8.85,8.85,0,0,0-1,0,7,7,0,0,0-1,.1,6.32,6.32,0,0,0-1,.2l-.19.05-.1-.16-.41-.67.26.12-2.78.45.21-.28.06.68,0,.24-.24,0a12.58,12.58,0,0,0-2.06.49l-1,.35c-.34.13-.67.26-1,.4l-.21.09-.1-.19-.51-.89.29.1-3.29,1.25.12-.31.4.88.1.23-.24.08a5.66,5.66,0,0,0-.91.41c-.3.16-.59.34-.88.52-.58.37-1.14.77-1.69,1.18l-.11.09-.12-.08-.79-.5H34l-2.69,2.09,0-.27.78.38.19.1-.15.15-1.85,1.74-.07.07-.08-.05L29.5,20h.13l-1.51,1.44,0-.07,0,.64v0l0,0a7.47,7.47,0,0,0-.7.78c-.23.27-.45.55-.67.83-.44.56-.88,1.12-1.3,1.69" transform="translate(-7.25 -4.26)"/><path class="cls-15" d="M40.41,18.05c-.1,0-.44.08-.4.16s1,.78.78,1.34-.69.15-1-.71c0,0-.35-.19-.51,0s.26.84.6,1.08c0,0,0,.78-.13.63s-.65-1.08-.86-1.07-.08.24-.3.25-.54.16-.31,1.12c0,0,0,.16-.09.16s-.4-.94-1.44-.17a.31.31,0,0,0-.06.43c.16.26.49.87.49.87a5.34,5.34,0,0,0-.66-.77c-.11,0-.4,0-.33.13s1,1.38.9,1.53-.78-.89-.91-.95-.09.27-.35.28-.49.43-.28,1.06a.25.25,0,0,1-.08.18c-.08.1-.15.07-.22-.19a5.07,5.07,0,0,0-1.09-1.79s-.56,0-.5.16a2.64,2.64,0,0,1,.62,1.72c-.1.89-.92-.09-1.05-.25a.88.88,0,0,0-.42-.89c-.53-.31-.9.18-.4.74l.59.65s0,.51.09.61.08-.43.08-.43.65.59,1.1.19.23-1.19.23-1.19l.58,1.29s-1,1.39-.54,1.56,1-.54.94-1.07,0-.85.2-1c0,0,.43.77.85.45a.79.79,0,0,0,.38-.67s.24.12.37,0a.23.23,0,0,0,.08-.23s.2.28.21.31-.66.85-.06,1.37a1.1,1.1,0,0,0,1.7-.34c.29-.41-.25-.27-.68-.35a7.53,7.53,0,0,0-.41-.73,4,4,0,0,1,2.07-1.61c.86-.33,2-.8,2-1.65s-1.7-2.17-1.79-2.18m-7.72,4.47c.11-.14.43.26.34.56,0,0-.46-.43-.34-.56m2,2.91c-.07-.18.45-.92.45-.92.06.79-.38,1.11-.45.92m1.88-2.14c.07.39-.06.84-.31.5a2.13,2.13,0,0,1-.2-.67s-.13-.56,0-.61.48.44.53.78M39,21.16a2.13,2.13,0,0,1-.2-.67s-.12-.56,0-.61.48.44.54.78-.07.84-.32.5M37,20.91c.28-.22.73-.12.92.43l-.47.93s-.73-1.14-.45-1.36m.54,1.6c0-.09.35-.78.4-.86a.08.08,0,0,1,.1,0,1.09,1.09,0,0,1-.37,1.18Zm4-1.73c-.65.72-2.51,1-3.65,2.41L37.82,23a1.68,1.68,0,0,0,.48-1.77l.11-.11s.48.74.88.38.19-.45.33-.59.26.09.39-.1a2,2,0,0,0,.11-.79s.53.25.82,0a.67.67,0,0,0,.08-.72s1,1,.57,1.5" transform="translate(-7.25 -4.26)"/><path class="cls-12" d="M23.37,48.1c.19-.79.42-1.57.68-2.34s.56-1.52.88-2.27S25.62,42,26,41.31a18.38,18.38,0,0,1,1.34-2l0,.16-1.55-1.35-.1-.08.08-.1,5.3-6.69.17-.22.14.24.84,1.37h-.34l2.16-3.26.19-.3.18.31.84,1.48L35,30.74l3.79-2.43-.09.29L38,27.06l-.09-.19.19-.11,5.63-3.22-.12.29-.45-1.52-.06-.19.17-.1a14.91,14.91,0,0,1,2-.9,21.7,21.7,0,0,1,2.08-.64,25,25,0,0,1,4.3-.7c.72,0,1.45-.07,2.17-.06.36,0,.72,0,1.09,0s.72,0,1.08.08a28.12,28.12,0,0,1,4.28.72l.13,0,0,.12.58,1.85-.13-.15,5,1.91.13.06v2.15L66,26.38l3.24,2.89-.25.06.6-1.32.11-.25.15.22,2.1,3.07h-.21l1-1.46.09-.14.09.13,2.77,4.15v0l-.42,1.84v0l1.41,1.85-1.46-1.81h0l.37-1.85v0l-2.86-4.09h.18l-.92,1.48-.1.16-.11-.15-2.14-3.05.26,0-.58,1.33-.09.2L69,29.52l-3.28-2.85-.06-.06v-.09l0-2,.14.19-5-1.87-.1,0,0-.1L60,20.84l.16.15A29.8,29.8,0,0,0,56,20.3l-1.07-.07c-.35,0-.71,0-1.06,0-.72,0-1.43,0-2.14.07a24.07,24.07,0,0,0-4.2.7,20.7,20.7,0,0,0-2,.63,13.93,13.93,0,0,0-1.93.85l.12-.29.45,1.52.05.19L44,24l-5.65,3.2.11-.3.65,1.54.08.18-.17.11-3.8,2.41-.2.13L34.9,31l-.83-1.48h.37l-2.18,3.24-.18.27-.16-.27-.82-1.39.31,0L26,38.06v-.18l1.52,1.38.08.07-.06.08a18.1,18.1,0,0,0-1.38,2,24.15,24.15,0,0,0-1.12,2.14c-.35.74-.65,1.49-.93,2.25s-.54,1.52-.75,2.31" transform="translate(-7.25 -4.26)"/><path class="cls-10" d="M30,75.27H29.1a1,1,0,0,1-1-1v-.52a1,1,0,0,1,1-1H30a1,1,0,0,1,1,1v.52a1,1,0,0,1-1,1" transform="translate(-7.25 -4.26)"/><path class="cls-11" d="M30.23,75.36h-1.4a.78.78,0,0,1-.78-.78V73.51a.78.78,0,0,1,.78-.78h1.4a.78.78,0,0,1,.78.78v1.07a.78.78,0,0,1-.78.78m-1.4-2.46a.61.61,0,0,0-.61.61v1.07a.6.6,0,0,0,.61.6h1.4a.6.6,0,0,0,.61-.6V73.51a.61.61,0,0,0-.61-.61Z" transform="translate(-7.25 -4.26)"/><path class="cls-10" d="M76.1,66.28s-.78,3,1.19,4.38,2.79,6.07,1.57,7.23-.23-.52-.2-1.57a6,6,0,0,0-1.77-5,5.16,5.16,0,0,1-1.25-5.2c.26-.93.46.12.46.12" transform="translate(-7.25 -4.26)"/><path class="cls-11" d="M78.32,78.37a.11.11,0,0,1-.08,0c-.14-.09-.06-.35.08-.84a5.61,5.61,0,0,0,.25-1.19v-.09a5.83,5.83,0,0,0-1.74-4.81,5.29,5.29,0,0,1-1.28-5.28c.09-.32.19-.46.31-.45s.29.36.33.57v0s-.74,3,1.16,4.29c1.3.9,2,3.09,2.16,4.75A3.45,3.45,0,0,1,78.92,78c-.33.31-.5.41-.6.41M75.85,65.86a1.1,1.1,0,0,0-.13.32,5.11,5.11,0,0,0,1.22,5.11,6,6,0,0,1,1.81,4.95v.09a5.4,5.4,0,0,1-.26,1.23,3,3,0,0,0-.14.63,1.46,1.46,0,0,0,.46-.36,3.23,3.23,0,0,0,.53-2.48c-.13-1.62-.84-3.75-2.09-4.62C75.33,69.41,76,66.54,76,66.27a.91.91,0,0,0-.16-.41" transform="translate(-7.25 -4.26)"/><path class="cls-10" d="M75,66s1.83,1.27,2.12,2.46a10.65,10.65,0,0,1-.36,4.36c-.31,1.1,1.69,3.41,1.2,3.94s-2-2.25-1.92-3.82,1.11-3.34.32-4.53S74.56,66.13,74.56,66,75,66,75,66" transform="translate(-7.25 -4.26)"/><path class="cls-11" d="M77.84,76.88a.34.34,0,0,1-.15,0c-.68-.29-1.78-2.62-1.71-4a10.25,10.25,0,0,1,.32-1.69c.26-1,.51-2,0-2.79A20.29,20.29,0,0,0,75,66.72c-.41-.49-.55-.66-.55-.76a.16.16,0,0,1,.07-.13c.12-.09.4,0,.52,0h0c.07.06,1.86,1.31,2.15,2.52a10.6,10.6,0,0,1-.36,4.4A3.93,3.93,0,0,0,77.58,75c.4.79.75,1.47.47,1.77a.3.3,0,0,1-.21.1M74.65,66a7.74,7.74,0,0,0,.5.64,18.81,18.81,0,0,1,1.31,1.71c.54.81.28,1.84,0,2.93a9,9,0,0,0-.31,1.65c-.08,1.33,1,3.54,1.6,3.78.09,0,.14,0,.16,0,.2-.21-.15-.9-.5-1.57s-.89-1.73-.72-2.33a10.54,10.54,0,0,0,.36-4.32c-.27-1.1-1.94-2.31-2.08-2.41a.79.79,0,0,0-.33-.06" transform="translate(-7.25 -4.26)"/><path class="cls-10" d="M75.56,65.61A12,12,0,0,0,75,68.89c.14.93,1.29,2.13.53,3.14s.61,2.75.26,3-.62-.27-1-1.57.58-1.63.35-2.41a9,9,0,0,1-.84-2.47c0-.9.31-3.53,1.2-3" transform="translate(-7.25 -4.26)"/><path class="cls-11" d="M75.65,75.2l-.1,0c-.27-.09-.48-.55-.78-1.68A2,2,0,0,1,75,71.92a1.07,1.07,0,0,0,.16-.83,8.35,8.35,0,0,0-.35-.84,3.87,3.87,0,0,1-.5-1.65c0-.7.2-2.73.84-3.09a.46.46,0,0,1,.49,0l.06,0,0,.07a12,12,0,0,0-.53,3.24,4.46,4.46,0,0,0,.35,1c.34.71.71,1.53.17,2.25s-.11,1.46.13,2.1c.17.46.3.8.11.94a.42.42,0,0,1-.22.08m-.32-9.57a.35.35,0,0,0-.14,0c-.49.28-.74,2-.74,2.94a3.86,3.86,0,0,0,.47,1.57,4.86,4.86,0,0,1,.36.87,1.22,1.22,0,0,1-.16,1,1.8,1.8,0,0,0-.18,1.46c.18.68.42,1.47.67,1.56a.19.19,0,0,0,.16,0c.08-.07-.06-.42-.18-.74-.25-.68-.6-1.6-.1-2.26s.14-1.37-.18-2.08a3.72,3.72,0,0,1-.37-1,11.57,11.57,0,0,1,.51-3.24.27.27,0,0,0-.12,0" transform="translate(-7.25 -4.26)"/><path class="cls-10" d="M75.78,66.6h-.87a1,1,0,0,1-1-1v-.52a1,1,0,0,1,1-1h.87a1,1,0,0,1,1,1v.52a1,1,0,0,1-1,1" transform="translate(-7.25 -4.26)"/><path class="cls-11" d="M76.05,66.69H74.64a.78.78,0,0,1-.78-.78V64.84a.78.78,0,0,1,.78-.77h1.41a.78.78,0,0,1,.78.77v1.07a.78.78,0,0,1-.78.78m-1.41-2.45a.6.6,0,0,0-.6.6v1.07a.6.6,0,0,0,.6.61h1.41a.6.6,0,0,0,.6-.61V64.84a.6.6,0,0,0-.6-.6Z" transform="translate(-7.25 -4.26)"/></svg>